<?xml version="1.0" encoding="utf-8"?>
<!-- Generator: Adobe Illustrator 19.2.0, SVG Export Plug-In . SVG Version: 6.00 Build 0)  -->
<!DOCTYPE svg PUBLIC "-//W3C//DTD SVG 1.1//EN" "http://www.w3.org/Graphics/SVG/1.1/DTD/svg11.dtd">
<svg version="1.1" id="Layer_1" xmlns="http://www.w3.org/2000/svg" xmlns:xlink="http://www.w3.org/1999/xlink" x="0px" y="0px"
	 width="360px" height="130px" viewBox="0 0 360 130" style="enable-background:new 0 0 360 130;" xml:space="preserve">
<style type="text/css">
	.st0{fill:#CA2027;}
</style>
<title>rails-logo</title>
<g>
	<g>
		<path class="st0" d="M207.7,83.4c0,11.2-4.9,18.2-14.6,21.1l17.8,24.6h-14.6l-16.2-22.8h-15v22.8h-11.4V61.4h25.2
			c10.3,0,17.8,1.7,22.2,5.2C205.5,70.1,207.7,75.7,207.7,83.4z M192.5,93c2.3-2,3.5-5.2,3.5-9.7c0-4.4-1.2-7.5-3.6-9.1
			c-2.4-1.6-6.7-2.5-12.8-2.5H165V96h14.3C185.7,96,190.1,95,192.5,93z"/>
		<path class="st0" d="M261.9,129.2H252v-6.9c-4.3,5.1-10,7.7-17.2,7.7c-5.4,0-9.8-1.5-13.3-4.6c-3.5-3-5.3-7.1-5.3-12.2
			c0-5.1,1.9-8.9,5.6-11.4c3.8-2.5,8.8-3.8,15.2-3.8h14.1v-1.9c0-6.9-3.8-10.3-11.4-10.3c-4.8,0-9.8,1.7-14.9,5.2l-4.9-6.8
			c6.3-5,13.4-7.5,21.3-7.5c6.1,0,11,1.5,14.9,4.6c3.8,3.1,5.8,7.9,5.8,14.5V129.2z M251,110v-4.4h-12.2c-7.8,0-11.7,2.5-11.7,7.4
			c0,2.5,1,4.4,2.9,5.8c1.9,1.3,4.6,2,8.1,2c3.5,0,6.5-1,9.1-2.9C249.7,115.9,251,113.3,251,110z"/>
		<path class="st0" d="M275.8,67.3c-1.4-1.4-2-3-2-4.9c0-1.9,0.7-3.5,2-4.9c1.4-1.4,3-2,4.9-2c1.9,0,3.5,0.7,4.9,2
			c1.4,1.4,2,3,2,4.9c0,1.9-0.7,3.5-2,4.9c-1.4,1.4-3,2-4.9,2C278.8,69.4,277.2,68.7,275.8,67.3z M286,129.2h-10.9V77.6H286V129.2z"
			/>
		<path class="st0" d="M310.7,129.2h-10.9v-72h10.9V129.2z"/>
		<path class="st0" d="M359.5,113.8c0,4.9-1.8,8.8-5.3,11.8c-3.6,2.9-8.1,4.4-13.7,4.4c-3.8,0-7.6-0.7-11.7-2
			c-4-1.4-7.6-3.3-10.7-5.7l5.2-8.4c6,4.5,11.8,6.8,17.5,6.8c2.5,0,4.4-0.6,5.8-1.7c1.4-1.1,2.1-2.6,2.1-4.3c0-2.6-3.4-4.9-10.3-7
			c-0.5-0.2-0.9-0.3-1.2-0.4c-10.7-2.9-16.1-7.8-16.1-14.6c0-4.8,1.9-8.6,5.6-11.5c3.7-2.9,8.6-4.3,14.5-4.3
			c5.9,0,11.6,1.7,16.9,5.2l-4.1,8.1c-4.2-2.8-8.8-4.2-13.7-4.2c-2.6,0-4.7,0.5-6.3,1.4c-1.6,0.9-2.4,2.3-2.4,4.2
			c0,1.7,0.8,2.9,2.5,3.7c1.2,0.6,2.8,1.1,4.9,1.6c2.1,0.5,4,1,5.6,1.6c1.6,0.5,3.2,1.1,4.7,1.7c1.5,0.6,3.2,1.6,4.9,2.7
			C357.8,105.3,359.5,108.9,359.5,113.8z"/>
	</g>
	<path class="st0" d="M12.2,129.4h13.2c-2.2-11.4-2.4-22.8-0.6-33.8c21.5,4.1,43,8.2,64.5,12.3c0.8,7.3,2.7,14.5,5.7,21.5h12.9
		c-3-6.2-5.2-12.6-6.4-19.2c4,0.8,8.1,1.5,12.1,2.3c-1.1-4.1-1.9-8.4-2.2-12.6c-3.7-1.1-7.4-2.1-11.1-3.2c0.1-7.1,1.2-14.2,3.5-21
		c3.1,1.4,6.2,2.8,9.3,4.2c0.7-2.8,1.6-5.6,2.7-8.3c-2.8-1.5-5.6-3-8.4-4.4c2.3-4.5,5.1-8.8,8.5-12.8c2.3,1.5,4.6,3.1,6.9,4.6
		c1.3-1.8,2.7-3.4,4.2-5.1c-2.1-1.5-4.1-3.1-6.2-4.6c2.9-2.7,6.1-5.2,9.6-7.3c1.7,1.5,3.4,3,5.1,4.5c1.4-1,2.9-2,4.5-2.9
		c-1.5-1.5-3.1-2.9-4.6-4.4c2.9-1.5,6.1-2.8,9.4-3.9c1.3,1.4,2.6,2.8,3.8,4.2c1.4-0.5,2.9-1.1,4.4-1.5c-1.2-1.4-2.3-2.7-3.5-4.1
		c2.8-0.7,5.7-1.3,8.7-1.7c1,1.3,1.9,2.5,2.9,3.8c1.3-0.2,2.7-0.4,4-0.6c-0.9-1.2-1.8-2.5-2.6-3.7c2.5-0.2,5.2-0.3,7.9-0.3
		c0.7,1.1,1.5,2.3,2.2,3.4c1.2,0,2.4-0.1,3.7,0c-0.7-1.1-1.3-2.2-2-3.3c2.3,0.1,4.7,0.3,7.1,0.5c0.6,1,1.1,2.1,1.7,3.1
		c1.1,0.1,2.2,0.2,3.3,0.3c-0.5-1-1-2-1.5-3c2.1,0.3,4.2,0.6,6.3,1.1c0.4,0.9,0.8,1.9,1.2,2.8c1,0.2,2,0.3,3,0.5
		c-0.4-0.9-0.8-1.8-1.1-2.7c1.4,0.3,2.8,0.6,4.1,1c-0.3-0.9-0.7-1.7-1-2.6c-1.4-0.4-2.9-0.8-4.3-1.1c-2-4.8-4-9.6-6-14.3
		c1.7,0.6,3.4,1.2,5.1,1.8c-0.3-0.9-0.7-1.7-1-2.6c-1.8-0.7-3.5-1.3-5.2-1.9c-0.4-0.9-0.8-1.8-1.1-2.7c-1.4-0.5-2.7-1-4.1-1.5
		c0.4,0.9,0.8,1.9,1.2,2.8c-2.8-0.9-5.5-1.7-8.2-2.5c-0.5-1-1-2-1.5-3c-1.6-0.5-3.2-0.9-4.7-1.3c0.6,1,1.1,2.1,1.7,3.1
		c-3.2-0.8-6.4-1.5-9.5-2.2c-0.7-1.1-1.3-2.2-2-3.3c-1.9-0.4-3.7-0.8-5.5-1.1c0.7,1.1,1.5,2.3,2.2,3.4c-3.7-0.6-7.4-1.1-11.1-1.4
		c-0.9-1.2-1.8-2.5-2.6-3.7c-2.2-0.2-4.4-0.4-6.5-0.6c1,1.3,1.9,2.5,2.9,3.8c-4.4-0.2-8.7-0.3-13-0.1c-1.2-1.4-2.3-2.7-3.5-4.1
		c-2.6,0-5.1,0.1-7.7,0.3c1.3,1.4,2.6,2.8,3.8,4.2c-5.2,0.5-10.3,1.2-15.2,2.2c-1.5-1.5-3.1-2.9-4.6-4.4c-3.1,0.6-6.1,1.2-9,2
		c1.7,1.5,3.4,3,5.1,4.5c-6.2,1.7-12,3.9-17.7,6.5c-2.1-1.5-4.1-3.1-6.2-4.6c-3.6,1.5-7,3.2-10.4,5.1c2.3,1.5,4.6,3.1,6.9,4.6
		c-7,4.1-13.5,8.9-19.4,14.2c-2.8-1.5-5.6-3-8.4-4.4c-3.9,3.3-7.5,6.9-10.9,10.7c3.1,1.4,6.2,2.8,9.3,4.2
		c-7.2,8.5-12.9,18-17.1,28.2c-3.7-1.1-7.4-2.1-11.1-3.2c-3,6.7-5.4,13.7-7,20.9c4,0.8,8.1,1.5,12.1,2.3
		C10.3,105,10.1,117.2,12.2,129.4z M183,15.7c2.2,5,4.4,9.9,6.7,14.8c-2.2-0.5-4.4-0.9-6.6-1.3c-2.7-5.3-5.4-10.6-8-15.9
		C177.6,14.1,180.3,14.9,183,15.7z M170.6,12.3c3,5.5,5.9,11,8.9,16.5c-2.5-0.3-5-0.6-7.4-0.7c-3.5-5.9-7.1-11.8-10.6-17.7
		C164.4,10.9,167.5,11.6,170.6,12.3z M156.2,9.5c3.9,6.1,7.8,12.2,11.7,18.3c-2.8-0.1-5.6,0-8.3,0.1c-4.7-6.5-9.4-13.1-14.1-19.6
		C149.1,8.6,152.6,9,156.2,9.5z M139.6,8c5.2,6.8,10.3,13.6,15.5,20.3c-3.2,0.3-6.3,0.8-9.3,1.5c-6.2-7.2-12.4-14.5-18.6-21.7
		C131.3,7.9,135.4,7.9,139.6,8z M120.2,8.7c6.8,7.5,13.7,14.9,20.5,22.4c-3.6,1-7,2.2-10.2,3.7c-8.2-7.9-16.5-15.7-24.7-23.6
		C110.5,10.1,115.3,9.3,120.2,8.7z M97.7,13.4c9.1,8,18.2,16.1,27.3,24.1c-3.9,2.1-7.5,4.6-10.7,7.2C103.3,36.4,92.2,28.2,81.2,20
		C86.4,17.4,91.9,15.2,97.7,13.4z M72.1,25c12.2,8.2,24.5,16.5,36.7,24.7c-3.9,4-7.2,8.3-10,13C83.9,54.8,69,46.9,54.2,39
		C59.5,33.8,65.5,29.1,72.1,25z M45,49.2c16.4,7.4,32.9,14.9,49.3,22.3c-2.9,7-4.7,14.4-5.3,22c-19.8-5.7-39.5-11.4-59.3-17.1
		C33.4,66.7,38.5,57.5,45,49.2z"/>
</g>
</svg>
