<?xml version="1.0" encoding="utf-8"?>
<svg version="1.1" id="Layer_1" xmlns="http://www.w3.org/2000/svg" xmlns:xlink="http://www.w3.org/1999/xlink" x="0px" y="0px"
	 viewBox="0 0 372.6 130.7" style="enable-background:new 0 0 372.6 130.7;" xml:space="preserve">
<style type="text/css">
	.st0{fill:#CC0000;}
</style>
<title>rails-logo</title>
<g>
	<path class="st0" d="M351.7,66.3c5.4,0,10.9-0.1,16.3-0.1c2.7,0,3.4,1,3.4,3.5c0,3.1,0,6,0,9.1c0,2.7-0.7,3.7-3.6,3.7
		c-8.2-0.2-16.4-0.1-24.6,0c-3.5,0-4.1,0.6-4.1,3.9c0,3.3,0.7,4,4,4c5.1,0,10.3,0,15.4,0c9.1,0.1,13.8,6.9,13.9,16
		c0,2.9,0.1,5.7,0,8.6c-0.2,8.7-5,15.6-13.7,15.7c-11,0.1-21.9,0-32.9,0.1c-2.4,0-3.2-0.9-3.1-3.2c0-3.1,0-6.3,0-9.4
		c-0.2-2.7,0.7-3.7,3.6-3.7c8.2,0.2,16.4,0.1,24.6,0c3.6,0,4-0.5,4-3.9c0-3.4-0.5-4-4-4c-5.1,0-10.3,0-15.4,0
		c-9-0.1-15.7-6.7-16-15.7c-0.1-2.9-0.1-5.7,0-8.6c0.2-9,7-15.9,16-16C341,66.2,346.4,66.3,351.7,66.3z"/>
	<path class="st0" d="M295.7,114.5c6,0,11.7,0.1,17.4,0c2.7-0.1,3.6,0.8,3.6,3.6c0,3,0,6,0,9.1c0.2,2.8-1,3.6-3.7,3.6
		c-11-0.1-22.1-0.1-33.1-0.1c-3.6,0-3.7-0.1-3.7-3.7c0-15.2,0-30.5,0-45.7c0-4,0.1-8,0-12c-0.1-2.2,0.7-3.1,3-3.1
		c4.5,0.1,9,0.1,13.4,0c2.4-0.1,3.1,0.9,3.1,3.2c-0.1,14,0,28,0,42C295.7,112.3,295.7,113.1,295.7,114.5z"/>
	<path class="st0" d="M266.9,98.8c0,9.4-0.1,18.8,0,28.3c0,2.6-0.7,3.8-3.5,3.7c-4.7,0-8.8,0-13.1,0c-2.1,0-2.9-0.7-2.9-2.8
		c0-19.6,0-39.2,0-58.8c0-2.1,0.9-2.8,2.9-2.8c4.4,0.1,8.8,0.1,13.1,0c2.6-0.1,3.5,0.8,3.5,3.4C266.8,79.4,266.9,89.1,266.9,98.8z"
		/>
	<path class="st0" d="M218.4,114.7c-5.4,0-10.4,0-15.9,0c0,4,0,8.1,0,12.1c0,3.8,0,3.8-3.8,3.8c-4.2,0-8.4-0.1-12.6,0
		c-2.2,0.1-3.1-0.7-3.1-2.9c0.1-15.3-0.1-30.7,0.1-46c0.1-8.5,7.2-15.4,15.6-15.5c7.9-0.1,15.8-0.1,23.7,0c8.3,0.1,15.4,7,15.5,15.3
		c0.1,15.4,0,30.9,0.1,46.3c0,2.2-0.9,2.8-2.9,2.8c-4.5-0.1-9,0-13.4,0c-2.6,0-3.3-1-3.2-3.4C218.5,123.2,218.4,119.1,218.4,114.7z
		 M218.4,98.3c0-4.6,0-9-0.1-13.4c0-0.9-1.5-2.3-2.5-2.3c-3.5,0-7,0-10.6,0c-1,0-2.6,1.2-2.6,2.3c-0.1,4.4-0.1,8.9-0.1,13.4
		C207.9,98.3,212.9,98.3,218.4,98.3z"/>
	<path class="st0" d="M165.6,112.6c3.1,5.5,6.1,10.8,9.4,16.5c0.4,0.7-0.1,1.6-0.9,1.7c-0.7,0-13.2,0-18.4,0c-2.2,0-2,0.1-3.1-1.8
		c-1.9-3.2-6.8-10.8-8.3-14c0,0-1.8,0-6,0c0,3.7,0,7.7,0,11.6c0,4,0,4-4,4c-4.7,0-7.4,0.1-12.2,0c-2.3,0.1-3.2-0.7-3.2-3.1
		c0.1-19.4,0.1-38.9,0-58.3c0-2.2,0.7-3.1,3-3.1c12.7,0.1,23.5-0.1,36.2,0.1c7.9,0.1,14.8,6.5,15.3,14.4c0.4,6.5,0.3,13,0,19.5
		C173.2,105.5,170.1,109.4,165.6,112.6z M138.4,98.4c4.5,0,8.6,0,13.2-0.1c0.9,0,2.4-1.7,2.4-2.7c0.2-3.4,0.2-6.8,0-10.2
		c-0.1-1-1.4-2.6-2.2-2.6c-4.5,0-8.8-0.1-13.4-0.1C138.4,88,138.4,93,138.4,98.4z"/>
</g>
<g>
	<path class="st0" d="M148.3,34.2c23.5,0,48.5,8.9,65,23.2l2.7-2.2c-21.1-24.5-52.4-37.9-87.2-37.9C65.1,17.3,21.9,67,21.9,130.6
		h47.4C69.6,79.1,96.7,34.2,148.3,34.2z"/>
	<polygon class="st0" points="74.9,111.3 90.7,111.3 90.5,123.3 74.7,123.3 	"/>
	<polygon class="st0" points="85.2,78.8 98.7,85.4 94.7,95.4 80.7,89.4 	"/>
	<polygon class="st0" points="106.4,51.9 114.6,62.1 106.7,68.2 98.6,58 	"/>
	<polygon class="st0" points="141.5,38 143.9,49.3 135.2,51 132.9,39.7 	"/>
	<polygon class="st0" points="174.6,40.9 172.2,51 164.6,49.1 166.9,39 	"/>
	<polygon class="st0" points="2.9,111.3 18.7,111.3 18.5,123.3 2.7,123.3 	"/>
	<polygon class="st0" points="26.2,49.5 40.2,56.6 33.7,66.5 19.7,59.5 	"/>
	<polygon class="st0" points="74.4,12.2 82.5,22.4 73.7,26.9 65.5,16.7 	"/>
	<polygon class="st0" points="134.2,1.9 136.6,13.2 127.9,13.4 125.6,2.1 	"/>
	<polygon class="st0" points="181.1,13.6 178.7,23.7 171.1,21.3 173.4,11.2 	"/>
</g>
</svg>
